<svg xmlns="http://www.w3.org/2000/svg" viewBox="0 0 240 200"><g data-label="x-axis  (horizontal axis — independent variable x)" style="cursor:crosshair"><line x1="35" y1="120" x2="205" y2="120" stroke="#445566" stroke-width="1"/><polygon points="205,117 213,120 205,123" fill="#445566" stroke="#445566" stroke-width="0"/><text x="217" y="124" fill="#445566" font-size="9" text-anchor="middle" font-family="sans-serif" font-weight="normal">x</text><line x1="35" y1="120" x2="213" y2="120" stroke="transparent" stroke-width="10"/></g><g data-label="y-axis  (vertical axis — dependent variable y = f(x))" style="cursor:crosshair"><line x1="120" y1="145" x2="120" y2="-10" stroke="#445566" stroke-width="1"/><polygon points="117,-10 120,-18 123,-10" fill="#445566" stroke="#445566" stroke-width="0"/><text x="124" y="-20" fill="#445566" font-size="9" text-anchor="middle" font-family="sans-serif" font-weight="normal">y</text><line x1="120" y1="145" x2="120" y2="-10" stroke="transparent" stroke-width="10"/></g><g data-label="Curve y = sin(x)·cos(x) = ½sin(2x)  — double-frequency sine wave" style="cursor:crosshair"><polyline points="32,120 34,115 36,111 39,106 41,102 43,99 45,96 47,93 50,91 52,90 54,90 56,90 58,91 61,93 63,96 65,99 67,102 69,106 72,111 74,115 76,120 78,125 80,129 83,134 85,138 87,141 89,144 91,147 94,149 96,150 98,150 100,150 102,149 105,147 107,144 109,141 111,138 113,134 116,129 118,125 120,120 122,115 124,111 127,106 129,102 131,99 133,96 135,93 138,91 140,90 142,90 144,90 146,91 149,93 151,96 153,99 155,102 157,106 160,111 162,115 164,120 166,125 168,129 171,134 173,138 175,141 177,144 179,147 182,149 184,150 186,150 188,150 190,149 193,147 195,144 197,141 199,138 201,134 204,129 206,125 208,120" fill="none" stroke="#f0a033" stroke-width="2.2"/></g><g data-label="∫ sinx cosx dx = sin²x/2 + C  (use substitution u = sin x)" style="cursor:crosshair"><text x="120" y="16" fill="#c8d0e8" font-size="9" text-anchor="middle" font-family="sans-serif" font-weight="normal">∫ sinx cosx dx = sin²x/2 + C</text><circle cx="120" cy="16" r="65" fill="transparent"/></g></svg>