<svg xmlns="http://www.w3.org/2000/svg" viewBox="0 0 240 200"><line x1="-110" y1="155" x2="230" y2="155" stroke="#445566" stroke-width="1"/><line x1="60" y1="180" x2="60" y2="15" stroke="#445566" stroke-width="1"/><polygon points="230,152 238,155 230,158" fill="#445566" stroke="#445566" stroke-width="0"/><polygon points="57,15 60,7 63,15" fill="#445566" stroke="#445566" stroke-width="0"/><text x="242" y="159" fill="#445566" font-size="9" text-anchor="middle" font-family="sans-serif" font-weight="normal">x</text><text x="64" y="5" fill="#445566" font-size="9" text-anchor="middle" font-family="sans-serif" font-weight="normal">y</text><polyline points="62,121 63,123 64,125 66,126 68,127 69,127 70,127 72,127 74,127 75,127 76,126 78,126 80,125 81,124 82,123 84,122 86,120 87,119 88,117 90,115 92,113 93,111 94,108 96,105 98,102 99,99 100,95 102,91 104,86 105,82 106,76 108,70 110,64 111,56 112,48 114,40 116,30 117,20 118,8 120,-5 122,-19 123,-35 124,-52 126,-72 128,-93 129,-117 130,-143 132,-172 134,-204 135,-240 136,-280 138,-325 140,-374 141,-429 142,-491 144,-560 146,-636 147,-722 148,-818 150,-925" fill="none" stroke="#f0a033" stroke-width="2.2"/><text x="120" y="16" fill="#c8d0e8" font-size="10" text-anchor="middle" font-family="sans-serif" font-weight="normal">d/dx[xˣ] = xˣ(ln x + 1)</text></svg>