<svg xmlns="http://www.w3.org/2000/svg" viewBox="0 0 240 200"><line x1="35" y1="130" x2="205" y2="130" stroke="#445566" stroke-width="1"/><line x1="120" y1="155" x2="120" y2="0" stroke="#445566" stroke-width="1"/><polygon points="205,127 213,130 205,133" fill="#445566" stroke="#445566" stroke-width="0"/><polygon points="117,0 120,-8 123,0" fill="#445566" stroke="#445566" stroke-width="0"/><text x="217" y="134" fill="#445566" font-size="9" text-anchor="middle" font-family="sans-serif" font-weight="normal">x</text><text x="124" y="-10" fill="#445566" font-size="9" text-anchor="middle" font-family="sans-serif" font-weight="normal">y</text><polyline points="45,101 48,100 51,99 54,98 57,97 60,95 63,94 66,93 69,92 72,90 75,89 78,87 81,85 84,83 87,81 90,79 93,77 96,75 99,72 102,70 105,67 108,64 111,61 114,57 117,54 120,50 123,46 126,41 129,37 132,32 135,26 138,20 141,20 144,20 147,20 150,20 153,20 156,20 159,20 162,20 165,20 168,20 171,20 174,20 177,20 180,20 183,20 186,20 189,20 192,20 195,20" fill="none" stroke="#f0a033" stroke-width="2.2"/><circle cx="120" cy="50" r="4" fill="#f0a033" stroke="#f0a033" stroke-width="0"/><circle cx="120" cy="50" r="6" fill="none" stroke="#5c8aff" stroke-width="1.5"/><text x="142" y="42" fill="#5c8aff" font-size="10" text-anchor="middle" font-family="sans-serif" font-weight="normal">limit=1</text><text x="120" y="16" fill="#c8d0e8" font-size="9" text-anchor="middle" font-family="sans-serif" font-weight="normal">lim((eˣ-1)/x) as x→0 = 1</text></svg>