<svg xmlns="http://www.w3.org/2000/svg" viewBox="0 0 240 200"><line x1="35" y1="155" x2="205" y2="155" stroke="#445566" stroke-width="1"/><line x1="120" y1="180" x2="120" y2="25" stroke="#445566" stroke-width="1"/><polygon points="205,152 213,155 205,158" fill="#445566" stroke="#445566" stroke-width="0"/><polygon points="117,25 120,17 123,25" fill="#445566" stroke="#445566" stroke-width="0"/><text x="217" y="159" fill="#445566" font-size="9" text-anchor="middle" font-family="sans-serif" font-weight="normal">x</text><text x="124" y="15" fill="#445566" font-size="9" text-anchor="middle" font-family="sans-serif" font-weight="normal">y</text><polyline points="65,59 66,66 68,77 69,87 70,96 72,103 73,110 75,116 76,122 77,126 79,130 80,134 82,137 83,140 84,142 86,144 87,146 88,147 90,149 91,150 92,151 94,151 95,152 97,152 98,153 99,153 101,154 102,154 104,154 105,154 106,154 108,154 109,154 110,155 112,155 113,155 114,155 116,155 117,155 119,155 120,155 121,155 123,155 124,155 126,155 127,155 128,155 130,155 131,154 132,154 134,154 135,154 136,154 138,154 139,154 141,153 142,153 143,152 145,152 146,151 148,151 149,150 150,149 152,147 153,146 154,144 156,142 157,140 158,137 160,134 161,130 163,126 164,122 165,116 167,110 168,103 170,96 171,87 172,77 174,66 175,59" fill="none" stroke="#f0a033" stroke-width="2.2"/><text x="120" y="16" fill="#c8d0e8" font-size="9" text-anchor="middle" font-family="sans-serif" font-weight="normal">d/dx[(x²+1)³] = 3(x²+1)²·2x</text></svg>