<svg xmlns="http://www.w3.org/2000/svg" viewBox="0 0 240 200"><g data-label="x-axis  (horizontal axis — independent variable x)" style="cursor:crosshair"><line x1="35" y1="160" x2="205" y2="160" stroke="#445566" stroke-width="1"/><polygon points="205,157 213,160 205,163" fill="#445566" stroke="#445566" stroke-width="0"/><text x="217" y="164" fill="#445566" font-size="9" text-anchor="middle" font-family="sans-serif" font-weight="normal">x</text><line x1="35" y1="160" x2="213" y2="160" stroke="transparent" stroke-width="10"/></g><g data-label="y-axis  (vertical axis — dependent variable y = f(x))" style="cursor:crosshair"><line x1="120" y1="185" x2="120" y2="30" stroke="#445566" stroke-width="1"/><polygon points="117,30 120,22 123,30" fill="#445566" stroke="#445566" stroke-width="0"/><text x="124" y="20" fill="#445566" font-size="9" text-anchor="middle" font-family="sans-serif" font-weight="normal">y</text><line x1="120" y1="185" x2="120" y2="30" stroke="transparent" stroke-width="10"/></g><g data-label="Curve f(x) = e^(x²)  — symmetric about y-axis; grows faster than eˣ" style="cursor:crosshair"><polyline points="70,15 71,15 72,15 73,15 75,15 76,17 77,35 78,51 80,65 81,76 82,86 83,94 85,101 86,107 87,113 88,117 90,121 91,125 92,128 94,131 95,133 96,135 97,137 99,138 100,140 101,141 102,142 104,143 105,144 106,145 107,145 109,146 110,146 111,147 112,147 114,147 115,148 116,148 117,148 119,148 120,148 121,148 123,148 124,148 125,148 126,147 128,147 129,147 130,146 131,146 133,145 134,145 135,144 136,143 138,142 139,141 140,140 141,138 143,137 144,135 145,133 146,131 148,128 149,125 150,121 152,117 153,113 154,107 155,101 157,94 158,86 159,76 160,65 162,51 163,35 164,17 165,15 167,15 168,15 169,15 170,15" fill="none" stroke="#f0a033" stroke-width="2.2"/></g><g data-label="Chain rule: d/dx[e^(x²)] = 2x·e^(x²)  (outer' = eˣ, inner' = 2x)" style="cursor:crosshair"><text x="120" y="16" fill="#c8d0e8" font-size="10" text-anchor="middle" font-family="sans-serif" font-weight="normal">d/dx[e^(x²)] = 2x e^(x²)</text><circle cx="120" cy="16" r="65" fill="transparent"/></g></svg>