<svg xmlns="http://www.w3.org/2000/svg" viewBox="0 0 240 200"><line x1="50" y1="155" x2="200" y2="155" stroke="#445566" stroke-width="1"/><line x1="60" y1="165" x2="60" y2="35" stroke="#445566" stroke-width="1"/><polygon points="60,155 60,155 62,153 64,151 65,150 67,148 69,146 70,144 72,142 74,141 76,139 78,137 79,135 81,133 83,132 84,130 86,128 88,126 90,124 92,123 93,121 95,119 97,117 98,115 100,114 102,112 104,110 106,108 107,106 109,105 111,103 112,101 114,99 116,97 118,96 120,94 121,92 123,90 125,88 126,87 128,85 130,83 132,81 134,79 135,78 137,76 139,74 140,72 142,70 144,69 146,67 148,65 149,63 151,61 153,60 154,58 156,56 158,54 160,52 162,51 163,49 165,47 165,155" fill="rgba(240,160,51,0.18)" stroke="#f0a033" stroke-width="1.5"/><polyline points="60,155 62,153 63,152 65,150 66,149 68,147 69,146 71,144 72,142 74,141 75,139 77,138 78,136 80,135 81,133 83,131 84,130 86,128 88,127 89,125 91,124 92,122 94,120 95,119 97,117 98,116 100,114 101,112 103,111 104,109 106,108 107,106 109,105 111,103 112,101 114,100 115,98 117,97 118,95 120,94 121,92 123,90 124,89 126,87 127,86 129,84 130,83 132,81 134,79 135,78 137,76 138,75 140,73 141,72 143,70 144,68 146,67 147,65 149,64 150,62 152,60 153,59 155,57 156,56 158,54 160,53 161,51 163,49 164,48 166,46 167,45 169,43 170,42 172,40 173,38 175,37 176,35 178,34 179,32 181,31 182,29" fill="none" stroke="#f0a033" stroke-width="2"/><line x1="60" y1="155" x2="60" y2="150" stroke="#445566" stroke-width="1"/><line x1="165" y1="155" x2="165" y2="150" stroke="#445566" stroke-width="1"/><text x="60" y="167" fill="#445566" font-size="9" text-anchor="middle" font-family="sans-serif" font-weight="normal">0</text><text x="165" y="167" fill="#445566" font-size="9" text-anchor="middle" font-family="sans-serif" font-weight="normal">3</text><text x="120" y="16" fill="#c8d0e8" font-size="11" text-anchor="middle" font-family="sans-serif" font-weight="normal">∫ 2x dx</text></svg>