<svg xmlns="http://www.w3.org/2000/svg" viewBox="0 0 240 200"><line x1="50" y1="155" x2="220" y2="155" stroke="#445566" stroke-width="1"/><line x1="60" y1="165" x2="60" y2="35" stroke="#445566" stroke-width="1"/><polygon points="60,155 60,65 62,65 64,65 66,65 68,65 70,65 72,65 74,65 76,65 78,65 80,65 82,65 84,65 86,65 88,65 90,65 92,65 94,65 96,65 98,65 100,65 102,65 104,65 106,65 108,65 110,65 112,65 114,65 116,65 118,65 120,65 122,65 124,65 126,65 128,65 130,65 132,65 134,65 136,65 138,65 140,65 142,65 144,65 146,65 148,65 150,65 152,65 154,65 156,65 158,65 160,65 162,65 164,65 166,65 168,65 170,65 172,65 174,65 176,65 178,65 180,65 180,155" fill="rgba(240,160,51,0.18)" stroke="#f0a033" stroke-width="1.5"/><polyline points="60,65 62,65 64,65 65,65 67,65 69,65 70,65 72,65 74,65 76,65 78,65 79,65 81,65 83,65 84,65 86,65 88,65 90,65 92,65 93,65 95,65 97,65 98,65 100,65 102,65 104,65 106,65 107,65 109,65 111,65 112,65 114,65 116,65 118,65 120,65 121,65 123,65 125,65 126,65 128,65 130,65 132,65 134,65 135,65 137,65 139,65 140,65 142,65 144,65 146,65 148,65 149,65 151,65 153,65 154,65 156,65 158,65 160,65 162,65 163,65 165,65 167,65 168,65 170,65 172,65 174,65 176,65 177,65 179,65 181,65 182,65 184,65 186,65 188,65 190,65 191,65 193,65 195,65 196,65 198,65 200,65" fill="none" stroke="#f0a033" stroke-width="2"/><line x1="60" y1="155" x2="60" y2="150" stroke="#445566" stroke-width="1"/><line x1="180" y1="155" x2="180" y2="150" stroke="#445566" stroke-width="1"/><text x="60" y="167" fill="#445566" font-size="9" text-anchor="middle" font-family="sans-serif" font-weight="normal">0</text><text x="180" y="167" fill="#445566" font-size="9" text-anchor="middle" font-family="sans-serif" font-weight="normal">3</text><text x="120" y="16" fill="#c8d0e8" font-size="11" text-anchor="middle" font-family="sans-serif" font-weight="normal">∫ 3 dx</text></svg>