<svg xmlns="http://www.w3.org/2000/svg" viewBox="0 0 240 200"><g data-label="x-axis  (horizontal axis — independent variable x)" style="cursor:crosshair"><line x1="35" y1="155" x2="205" y2="155" stroke="#445566" stroke-width="1"/><polygon points="205,152 213,155 205,158" fill="#445566" stroke="#445566" stroke-width="0"/><text x="217" y="159" fill="#445566" font-size="9" text-anchor="middle" font-family="sans-serif" font-weight="normal">x</text><line x1="35" y1="155" x2="213" y2="155" stroke="transparent" stroke-width="10"/></g><g data-label="y-axis  (vertical axis — dependent variable y = f(x))" style="cursor:crosshair"><line x1="120" y1="180" x2="120" y2="25" stroke="#445566" stroke-width="1"/><polygon points="117,25 120,17 123,25" fill="#445566" stroke="#445566" stroke-width="0"/><text x="124" y="15" fill="#445566" font-size="9" text-anchor="middle" font-family="sans-serif" font-weight="normal">y</text><line x1="120" y1="180" x2="120" y2="25" stroke="transparent" stroke-width="10"/></g><g data-label="Curve f(x)  (the function whose limit is being evaluated)" style="cursor:crosshair"><polyline points="54,83 56,87 57,90 59,93 61,97 62,100 64,103 66,106 67,109 69,112 70,114 72,117 74,120 75,122 77,125 79,127 80,129 82,131 84,133 85,135 87,137 89,139 90,140 92,142 94,143 95,145 97,146 99,147 100,149 102,150 104,150 105,151 107,152 108,153 110,153 112,154 113,154 115,155 117,155 118,155 120,155 122,155 123,155 125,155 127,154 128,154 130,153 132,153 133,152 135,151 136,150 138,150 140,149 141,147 143,146 145,145 146,143 148,142 150,140 151,139 153,137 155,135 156,133 158,131 160,129 161,127 163,125 165,122 166,120 168,117 170,114 171,112 173,109 174,106 176,103 178,100 179,97 181,93 183,90 184,87 186,83" fill="none" stroke="#f0a033" stroke-width="2.2"/></g><g data-label="x → 2  (vertical dashed line — x approaches this value from both sides)" style="cursor:crosshair"><line x1="164" y1="155" x2="164" y2="123" stroke="#5c8aff" stroke-width="1.5" stroke-dasharray="4,3"/><text x="164" y="169" fill="#5c8aff" font-size="9" text-anchor="middle" font-family="sans-serif" font-weight="normal">x→2</text><line x1="164" y1="155" x2="164" y2="123" stroke="transparent" stroke-width="14"/></g><g data-label="Limit point — f(x) approaches 4 as x → 2" style="cursor:crosshair"><circle cx="164" cy="123" r="4" fill="#f0a033" stroke="#f0a033" stroke-width="0"/><circle cx="164" cy="123" r="14" fill="transparent"/></g><g data-label="Limit: lim(x→2) x² = 4" style="cursor:crosshair"><text x="120" y="16" fill="#c8d0e8" font-size="10" text-anchor="middle" font-family="sans-serif" font-weight="normal">lim(x→2) x² = 4</text><circle cx="120" cy="16" r="65" fill="transparent"/></g></svg>