<svg xmlns="http://www.w3.org/2000/svg" viewBox="0 0 240 200"><g data-label="x-axis  (horizontal axis)" style="cursor:crosshair"><line x1="50" y1="155" x2="182" y2="155" stroke="#445566" stroke-width="1"/><line x1="50" y1="155" x2="182" y2="155" stroke="transparent" stroke-width="10"/></g><g data-label="y-axis" style="cursor:crosshair"><line x1="60" y1="165" x2="60" y2="15" stroke="#445566" stroke-width="1"/><line x1="60" y1="165" x2="60" y2="15" stroke="transparent" stroke-width="10"/></g><g data-label="Shaded area = ∫₁ᵉ (1/x) dx = ln(e) − ln(1) = 1" style="cursor:crosshair"><polygon points="98,155 98,105 99,106 100,107 100,108 101,109 102,110 103,111 104,112 105,112 105,113 106,114 107,115 108,115 109,116 109,117 110,117 111,118 112,118 113,119 114,119 114,120 115,121 116,121 117,122 118,122 118,122 119,123 120,123 121,124 122,124 122,125 123,125 124,125 125,126 126,126 127,126 127,127 128,127 129,127 130,128 131,128 131,128 132,129 133,129 134,129 135,130 136,130 136,130 137,130 138,131 139,131 140,131 140,131 141,132 142,132 143,132 144,132 145,133 145,133 146,133 147,133 148,133 149,134 149,134 150,134 151,134 152,134 153,135 154,135 154,135 155,135 156,135 157,135 158,136 158,136 159,136 160,136 161,136 162,136 162,136 163,137 163,155" fill="rgba(240,160,51,0.18)" stroke="#f0a033" stroke-width="1.5"/></g><g data-label="Curve f(x) = 1/x  (the integrand)" style="cursor:crosshair"><polyline points="79,55 80,61 81,66 83,71 84,75 85,79 86,82 87,86 89,88 90,91 91,94 92,96 93,98 95,100 96,102 97,104 98,105 99,107 101,108 102,109 103,111 104,112 105,113 107,114 108,115 109,116 110,117 111,118 112,119 114,120 115,120 116,121 117,122 118,123 120,123 121,124 122,124 123,125 124,126 126,126 127,127 128,127 129,128 130,128 132,128 133,129 134,129 135,130 136,130 138,131 139,131 140,131 141,132 142,132 144,132 145,133 146,133 147,133 148,134 150,134 151,134 152,134 153,135 154,135 156,135 157,135 158,136 159,136 160,136 162,136 163,137 164,137 165,137 166,137 168,137 169,138 170,138 171,138 172,138 173,138 175,138" fill="none" stroke="#f0a033" stroke-width="2.2"/></g><g data-label="Left bound x = 1  (lower limit of integration)" style="cursor:crosshair"><line x1="98" y1="155" x2="98" y2="149" stroke="#445566" stroke-width="1"/><text x="98" y="167" fill="#445566" font-size="9" text-anchor="middle" font-family="sans-serif" font-weight="normal">1</text><line x1="98" y1="149" x2="98" y2="167" stroke="transparent" stroke-width="14"/></g><g data-label="Right bound x = e ≈ 2.718  (upper limit of integration)" style="cursor:crosshair"><line x1="163" y1="155" x2="163" y2="149" stroke="#445566" stroke-width="1"/><text x="163" y="167" fill="#445566" font-size="9" text-anchor="middle" font-family="sans-serif" font-weight="normal">e</text><line x1="163" y1="149" x2="163" y2="167" stroke="transparent" stroke-width="14"/></g><g data-label="∫₁ᵉ (1/x) dx = ln(e)−ln(1) = 1  (fundamental theorem of calculus)" style="cursor:crosshair"><text x="120" y="16" fill="#c8d0e8" font-size="9" text-anchor="middle" font-family="sans-serif" font-weight="normal">∫₁ᵉ (1/x) dx = ln(e)−ln(1) = 1</text><circle cx="120" cy="16" r="65" fill="transparent"/></g></svg>