<svg xmlns="http://www.w3.org/2000/svg" viewBox="0 0 240 200"><g data-label="x-axis  (horizontal axis — independent variable x)" style="cursor:crosshair"><line x1="35" y1="155" x2="205" y2="155" stroke="#445566" stroke-width="1"/><polygon points="205,152 213,155 205,158" fill="#445566" stroke="#445566" stroke-width="0"/><text x="217" y="159" fill="#445566" font-size="9" text-anchor="middle" font-family="sans-serif" font-weight="normal">x</text><line x1="35" y1="155" x2="213" y2="155" stroke="transparent" stroke-width="10"/></g><g data-label="y-axis  (vertical axis — dependent variable y = f(x))" style="cursor:crosshair"><line x1="120" y1="180" x2="120" y2="25" stroke="#445566" stroke-width="1"/><polygon points="117,25 120,17 123,25" fill="#445566" stroke="#445566" stroke-width="0"/><text x="124" y="15" fill="#445566" font-size="9" text-anchor="middle" font-family="sans-serif" font-weight="normal">y</text><line x1="120" y1="180" x2="120" y2="25" stroke="transparent" stroke-width="10"/></g><g data-label="Curve y = x^4 — power function" style="cursor:crosshair"><polyline points="69,25 71,29 72,41 73,53 74,63 76,73 77,82 78,90 80,98 81,105 82,111 83,116 85,121 86,126 87,130 88,134 90,137 91,140 92,142 93,144 95,146 96,148 97,149 98,150 100,151 101,152 102,153 104,153 105,154 106,154 107,154 109,155 110,155 111,155 112,155 114,155 115,155 116,155 117,155 119,155 120,155 121,155 123,155 124,155 125,155 126,155 128,155 129,155 130,155 131,155 133,154 134,154 135,154 136,153 138,153 139,152 140,151 142,150 143,149 144,148 145,146 147,144 148,142 149,140 150,137 152,134 153,130 154,126 155,121 157,116 158,111 159,105 160,98 162,90 163,82 164,73 166,63 167,53 168,41 169,29 171,25" fill="none" stroke="#f0a033" stroke-width="2.2"/></g><g data-label="Tangent line at x=1  (slope = 4 = the derivative there)" style="cursor:crosshair"><polyline points="109,180 175,120" fill="none" stroke="#5c8aff" stroke-width="2"/><line x1="109" y1="180" x2="175" y2="120" stroke="transparent" stroke-width="12"/></g><g data-label="Point (1, 1) — where the tangent touches the curve" style="cursor:crosshair"><circle cx="142" cy="150" r="4" fill="#f0a033" stroke="#f0a033" stroke-width="0"/><circle cx="142" cy="150" r="14" fill="transparent"/></g><g data-label="Power rule: d/dx[x^4] = 4·x^3" style="cursor:crosshair"><text x="120" y="16" fill="#c8d0e8" font-size="10" text-anchor="middle" font-family="sans-serif" font-weight="normal">d/dx[x^4] = 4x^3</text><circle cx="120" cy="16" r="65" fill="transparent"/></g></svg>