<svg xmlns="http://www.w3.org/2000/svg" viewBox="0 0 240 200"><g data-label="x-axis  (horizontal axis)" style="cursor:crosshair"><line x1="50" y1="155" x2="140" y2="155" stroke="#445566" stroke-width="1"/><line x1="50" y1="155" x2="140" y2="155" stroke="transparent" stroke-width="10"/></g><g data-label="y-axis" style="cursor:crosshair"><line x1="60" y1="165" x2="60" y2="10" stroke="#445566" stroke-width="1"/><line x1="60" y1="165" x2="60" y2="10" stroke="transparent" stroke-width="10"/></g><g data-label="Shaded area = ∫₀^2.5 x·eˣ dx  (evaluated using integration by parts)" style="cursor:crosshair"><polygon points="60,155 60,155 61,154 61,154 62,153 63,152 63,152 64,151 65,150 66,149 66,148 67,147 68,146 68,145 69,144 70,143 70,142 71,140 72,139 72,137 73,136 74,134 74,132 75,130 76,128 76,126 77,124 78,122 79,120 79,117 80,115 81,112 81,109 82,106 83,103 83,100 84,96 85,93 85,89 86,85 87,81 88,76 88,72 89,67 90,62 90,57 91,52 92,46 92,40 93,34 94,28 94,21 95,14 96,10 96,10 97,10 98,10 98,10 99,10 100,10 101,10 101,10 102,10 103,10 103,10 104,10 105,10 105,10 106,10 107,10 107,10 108,10 109,10 110,10 110,10 111,10 112,10 112,10 113,10 114,10 114,10 115,10 115,155" fill="rgba(240,160,51,0.18)" stroke="none"/></g><g data-label="Curve f(x) = x·eˣ  — grows rapidly; faster than eˣ alone" style="cursor:crosshair"><polyline points="60,155 61,154 61,154 62,153 63,152 63,152 64,151 65,150 66,149 66,148 67,147 68,146 68,145 69,144 70,143 70,142 71,140 72,139 72,137 73,136 74,134 74,132 75,130 76,128 76,126 77,124 78,122 79,120 79,117 80,115 81,112 81,109 82,106 83,103 83,100 84,96 85,93 85,89 86,85 87,81 88,76 88,72 89,67 90,62 90,57 91,52 92,46 92,40 93,34 94,28 94,21 95,14 96,10 96,10 97,10 98,10 98,10 99,10 100,10 101,10 101,10 102,10 103,10 103,10 104,10 105,10 105,10 106,10 107,10 107,10 108,10 109,10 110,10 110,10 111,10 112,10 112,10 113,10 114,10 114,10 115,10" fill="none" stroke="#f0a033" stroke-width="2.2"/></g><g data-label="∫ x eˣ dx = xeˣ − eˣ + C  (integration by parts: u=x, dv=eˣ dx)" style="cursor:crosshair"><text x="120" y="16" fill="#c8d0e8" font-size="10" text-anchor="middle" font-family="sans-serif" font-weight="normal">∫ x eˣ dx = xeˣ − eˣ + C</text><circle cx="120" cy="16" r="65" fill="transparent"/></g></svg>