<svg xmlns="http://www.w3.org/2000/svg" viewBox="0 0 240 200"><line x1="35" y1="155" x2="205" y2="155" stroke="#445566" stroke-width="1"/><line x1="120" y1="180" x2="120" y2="25" stroke="#445566" stroke-width="1"/><polygon points="205,152 213,155 205,158" fill="#445566" stroke="#445566" stroke-width="0"/><polygon points="117,25 120,17 123,25" fill="#445566" stroke="#445566" stroke-width="0"/><text x="217" y="159" fill="#445566" font-size="9" text-anchor="middle" font-family="sans-serif" font-weight="normal">x</text><text x="124" y="15" fill="#445566" font-size="9" text-anchor="middle" font-family="sans-serif" font-weight="normal">y</text><polyline points="54,170 56,177 57,183 59,188 61,192 62,196 64,199 66,200 67,202 69,202 70,202 72,202 74,201 75,199 77,197 79,195 80,193 82,190 84,188 85,185 87,182 89,179 90,176 92,174 94,171 95,169 97,166 99,164 100,163 102,161 104,160 105,158 107,157 108,157 110,156 112,156 113,155 115,155 117,155 118,155 120,155 122,155 123,155 125,155 127,155 128,154 130,154 132,153 133,153 135,152 136,150 138,149 140,147 141,146 143,144 145,141 146,139 148,136 150,134 151,131 153,128 155,125 156,122 158,120 160,117 161,115 163,113 165,111 166,109 168,108 170,108 171,108 173,108 174,110 176,111 178,114 179,118 181,122 183,127 184,133 186,140" fill="none" stroke="#f0a033" stroke-width="2.2"/><text x="120" y="16" fill="#c8d0e8" font-size="9" text-anchor="middle" font-family="sans-serif" font-weight="normal">d/dx[x²sinx] = 2x sinx + x²cosx</text></svg>