<svg xmlns="http://www.w3.org/2000/svg" viewBox="0 0 240 200"><g data-label="x-axis  (horizontal axis — independent variable x)" style="cursor:crosshair"><line x1="50" y1="155" x2="180" y2="155" stroke="#445566" stroke-width="1"/><line x1="50" y1="155" x2="180" y2="155" stroke="transparent" stroke-width="10"/></g><g data-label="y-axis  (vertical axis — dependent variable y = f(x))" style="cursor:crosshair"><line x1="60" y1="165" x2="60" y2="35" stroke="#445566" stroke-width="1"/><line x1="60" y1="165" x2="60" y2="35" stroke="transparent" stroke-width="10"/></g><g data-label="Shaded area = ∫ from 0 to 2 of eˣ dx  (the definite integral)" style="cursor:crosshair"><polygon points="60,155 60,135 61,134 63,134 64,133 65,132 67,131 68,131 69,130 71,129 72,128 73,127 75,126 76,125 77,124 79,123 80,122 81,121 83,120 84,119 85,117 87,116 88,115 89,113 91,112 92,110 93,109 95,107 96,106 97,104 99,102 100,101 101,99 103,97 104,95 105,93 107,91 108,89 109,86 111,84 112,82 113,79 115,77 116,74 117,71 119,68 120,65 121,62 123,59 124,56 125,53 127,49 128,46 129,42 131,38 132,34 133,30 135,26 136,21 137,17 139,12 140,7 140,155" fill="rgba(240,160,51,0.18)" stroke="#f0a033" stroke-width="1.5"/></g><g data-label="Curve f(x) = eˣ  (the integrand — function being integrated)" style="cursor:crosshair"><polyline points="60,135 61,134 62,134 64,133 65,132 66,132 68,131 69,130 70,129 71,129 72,128 74,127 75,126 76,125 78,124 79,123 80,122 81,121 82,120 84,119 85,118 86,116 88,115 89,114 90,113 91,111 92,110 94,108 95,107 96,105 98,104 99,102 100,101 101,99 102,97 104,95 105,93 106,91 108,89 109,87 110,85 111,83 112,81 114,78 115,76 116,73 118,71 119,68 120,65 121,63 122,60 124,57 125,53 126,50 128,47 129,43 130,40 131,36 132,32 134,29 135,25 136,20 138,16 139,12 140,7 141,3 142,-2 144,-7 145,-12 146,-18 148,-23 149,-29 150,-35 151,-41 152,-47 154,-53 155,-60 156,-67 158,-74 159,-81 160,-89" fill="none" stroke="#f0a033" stroke-width="2"/></g><g data-label="Left bound x = 0  (lower limit of integration)" style="cursor:crosshair"><line x1="60" y1="155" x2="60" y2="150" stroke="#445566" stroke-width="1"/><text x="60" y="167" fill="#445566" font-size="9" text-anchor="middle" font-family="sans-serif" font-weight="normal">0</text><line x1="60" y1="150" x2="60" y2="167" stroke="transparent" stroke-width="14"/></g><g data-label="Right bound x = 2  (upper limit of integration)" style="cursor:crosshair"><line x1="140" y1="155" x2="140" y2="150" stroke="#445566" stroke-width="1"/><text x="140" y="167" fill="#445566" font-size="9" text-anchor="middle" font-family="sans-serif" font-weight="normal">2</text><line x1="140" y1="150" x2="140" y2="167" stroke="transparent" stroke-width="14"/></g><g data-label="∫ eˣ dx  (antiderivative — find a function whose derivative is eˣ)" style="cursor:crosshair"><text x="120" y="16" fill="#c8d0e8" font-size="11" text-anchor="middle" font-family="sans-serif" font-weight="normal">∫ eˣ dx</text><circle cx="120" cy="16" r="60" fill="transparent"/></g></svg>