<svg xmlns="http://www.w3.org/2000/svg" viewBox="0 0 240 200"><line x1="-90" y1="155" x2="210" y2="155" stroke="#445566" stroke-width="1"/><line x1="60" y1="180" x2="60" y2="15" stroke="#445566" stroke-width="1"/><polygon points="210,152 218,155 210,158" fill="#445566" stroke="#445566" stroke-width="0"/><polygon points="57,15 60,7 63,15" fill="#445566" stroke="#445566" stroke-width="0"/><text x="222" y="159" fill="#445566" font-size="9" text-anchor="middle" font-family="sans-serif" font-weight="normal">x</text><text x="64" y="5" fill="#445566" font-size="9" text-anchor="middle" font-family="sans-serif" font-weight="normal">y</text><polyline points="62,206 63,198 64,192 65,188 66,184 67,181 68,178 69,175 70,173 71,171 72,169 72,167 73,166 74,164 75,163 76,162 77,160 78,159 79,158 80,157 81,156 82,155 83,154 84,153 85,153 86,152 87,151 87,150 88,149 89,149 90,148 91,147 92,147 93,146 94,145 95,145 96,144 97,144 98,143 99,143 100,142 101,142 101,141 102,141 103,140 104,140 105,139 106,139 107,138 108,138 109,137 110,137 111,137 112,136 113,136 114,135 115,135 115,135 116,134 117,134 118,134 119,133 120,133 121,133 122,132 123,132 124,132 125,131 126,131 127,131 128,130 129,130 130,130 130,129 131,129 132,129 133,129 134,128 135,128 136,128 137,127" fill="none" stroke="#f0a033" stroke-width="2.2"/><text x="120" y="16" fill="#c8d0e8" font-size="11" text-anchor="middle" font-family="sans-serif" font-weight="normal">f(x) = ln(x)</text></svg>