<svg xmlns="http://www.w3.org/2000/svg" viewBox="0 0 240 200"><g data-label="x-axis  (baseline — integral is area above this line)" style="cursor:crosshair"><line x1="30" y1="115" x2="170" y2="115" stroke="#445566" stroke-width="1"/><line x1="30" y1="115" x2="170" y2="115" stroke="transparent" stroke-width="10"/></g><g data-label="y-axis" style="cursor:crosshair"><line x1="40" y1="135" x2="40" y2="55" stroke="#445566" stroke-width="1"/><line x1="40" y1="135" x2="40" y2="55" stroke="transparent" stroke-width="10"/></g><g data-label="Shaded area = ∫₀^π sin(x) dx = 2  (one full arch above x-axis)" style="cursor:crosshair"><polygon points="40,115 40,115 41,113 42,111 43,109 44,107 45,105 47,103 48,101 49,100 50,98 51,96 52,94 53,92 54,91 55,89 56,87 58,86 59,84 60,83 61,81 62,80 63,78 64,77 65,76 66,75 67,73 69,72 70,71 71,70 72,70 73,69 74,68 75,67 76,67 77,66 78,66 80,66 81,65 82,65 83,65 84,65 85,65 86,65 87,65 88,66 89,66 91,66 92,67 93,67 94,68 95,69 96,70 97,70 98,71 99,72 100,73 102,75 103,76 104,77 105,78 106,80 107,81 108,83 109,84 110,86 111,87 113,89 114,91 115,92 116,94 117,96 118,98 119,100 120,101 121,103 122,105 124,107 125,109 126,111 127,113 128,115 128,115" fill="rgba(240,160,51,0.18)" stroke="#f0a033" stroke-width="1.5"/></g><g data-label="Curve y = sin(x)" style="cursor:crosshair"><polyline points="34,125 36,123 37,121 38,118 39,116 41,114 42,112 43,110 44,107 46,105 47,103 48,101 49,99 51,97 52,95 53,93 54,91 55,89 57,87 58,85 59,83 60,82 62,80 63,79 64,77 65,76 67,74 68,73 69,72 70,71 72,70 73,69 74,68 75,67 77,67 78,66 79,66 80,65 82,65 83,65 84,65 85,65 86,65 88,65 89,66 90,66 91,67 93,67 94,68 95,69 96,70 98,71 99,72 100,73 101,74 103,76 104,77 105,79 106,80 108,82 109,83 110,85 111,87 112,89 114,91 115,93 116,95 117,97 119,99 120,101 121,103 122,105 124,107 125,110 126,112 127,114 129,116 130,118 131,121 132,123 134,125" fill="none" stroke="#f0a033" stroke-width="2.2"/></g><g data-label="Left bound x = 0  (sin starts at zero here)" style="cursor:crosshair"><circle cx="40" cy="115" r="12" fill="transparent"/></g><g data-label="Right bound x = π  (sin returns to zero at π)" style="cursor:crosshair"><circle cx="128" cy="115" r="12" fill="transparent"/></g><g data-label="∫ sin(x) dx = −cos(x) + C  (antiderivative of sin is −cos)" style="cursor:crosshair"><text x="120" y="16" fill="#c8d0e8" font-size="10" text-anchor="middle" font-family="sans-serif" font-weight="normal">∫ sin(x) dx = −cos(x) + C</text><circle cx="120" cy="16" r="65" fill="transparent"/></g></svg>