<svg xmlns="http://www.w3.org/2000/svg" viewBox="0 0 240 200"><line x1="35" y1="155" x2="205" y2="155" stroke="#445566" stroke-width="1"/><line x1="120" y1="180" x2="120" y2="25" stroke="#445566" stroke-width="1"/><polygon points="205,152 213,155 205,158" fill="#445566" stroke="#445566" stroke-width="0"/><polygon points="117,25 120,17 123,25" fill="#445566" stroke="#445566" stroke-width="0"/><text x="217" y="159" fill="#445566" font-size="9" text-anchor="middle" font-family="sans-serif" font-weight="normal">x</text><text x="124" y="15" fill="#445566" font-size="9" text-anchor="middle" font-family="sans-serif" font-weight="normal">y</text><polyline points="79,84 80,94 81,103 82,110 83,117 84,124 85,129 86,134 87,138 88,142 89,145 90,148 91,150 92,152 93,154 94,155 95,155 96,156 97,156 98,156 99,156 100,156 101,155 102,155 103,154 104,153 106,153 107,152 108,151 109,150 110,149 111,149 112,148 113,147 114,147 115,146 116,146 117,145 118,145 119,145 120,145 121,145 122,145 123,145 124,146 125,146 126,147 127,147 128,148 129,149 130,149 131,150 132,151 133,152 134,153 136,153 137,154 138,155 139,155 140,156 141,156 142,156 143,156 144,156 145,155 146,155 147,154 148,152 149,150 150,148 151,145 152,142 153,138 154,134 155,129 156,124 157,117 158,110 159,103 160,94 161,84" fill="none" stroke="#f0a033" stroke-width="2.2"/><text x="120" y="16" fill="#c8d0e8" font-size="9" text-anchor="middle" font-family="sans-serif" font-weight="normal">y = x⁴−3x²+2  →  y'' = 12x²−6</text></svg>