<svg xmlns="http://www.w3.org/2000/svg" viewBox="0 0 240 200"><line x1="35" y1="120" x2="205" y2="120" stroke="#445566" stroke-width="1"/><line x1="120" y1="145" x2="120" y2="-10" stroke="#445566" stroke-width="1"/><polygon points="205,117 213,120 205,123" fill="#445566" stroke="#445566" stroke-width="0"/><polygon points="117,-10 120,-18 123,-10" fill="#445566" stroke="#445566" stroke-width="0"/><text x="217" y="124" fill="#445566" font-size="9" text-anchor="middle" font-family="sans-serif" font-weight="normal">x</text><text x="124" y="-20" fill="#445566" font-size="9" text-anchor="middle" font-family="sans-serif" font-weight="normal">y</text><polyline points="127,53 127,61 128,67 129,72 130,77 131,80 132,83 133,86 134,88 135,90 135,91 136,93 137,94 138,96 139,97 140,98 141,99 142,100 142,100 143,101 144,102 145,102 146,103 147,104 148,104 149,105 149,105 150,106 151,106 152,106 153,107 154,107 155,107 156,108 157,108 157,108 158,109 159,109 160,109 161,109 162,109 163,110 164,110 164,110 165,110 166,110 167,111 168,111 169,111 170,111 171,111 171,111 172,112 173,112 174,112 175,112 176,112 177,112 178,112 179,112 179,113 180,113 181,113 182,113 183,113 184,113 185,113 186,113 186,113 187,113 188,114 189,114 190,114 191,114 192,114 193,114 193,114 194,114 195,114 196,114 197,114" fill="none" stroke="#f0a033" stroke-width="2.2"/><polyline points="43,126 44,126 45,126 46,126 47,126 47,126 48,126 49,126 50,126 51,126 52,126 53,127 54,127 54,127 55,127 56,127 57,127 58,127 59,127 60,127 61,127 61,128 62,128 63,128 64,128 65,128 66,128 67,128 68,128 69,129 69,129 70,129 71,129 72,129 73,129 74,130 75,130 76,130 76,130 77,130 78,131 79,131 80,131 81,131 82,131 83,132 83,132 84,132 85,133 86,133 87,133 88,134 89,134 90,134 91,135 91,135 92,136 93,136 94,137 95,138 96,138 97,139 98,140 98,140 99,141 100,142 101,143 102,144 103,146 104,147 105,149 105,150 106,152 107,154 108,157 109,160 110,163 111,168 112,173 113,179 113,187" fill="none" stroke="#f0a033" stroke-width="2.2"/><text x="120" y="16" fill="#c8d0e8" font-size="11" text-anchor="middle" font-family="sans-serif" font-weight="normal">f(x) = 1/x</text></svg>