<svg xmlns="http://www.w3.org/2000/svg" viewBox="0 0 240 200"><line x1="-90" y1="155" x2="210" y2="155" stroke="#445566" stroke-width="1"/><line x1="60" y1="180" x2="60" y2="15" stroke="#445566" stroke-width="1"/><polygon points="210,152 218,155 210,158" fill="#445566" stroke="#445566" stroke-width="0"/><polygon points="57,15 60,7 63,15" fill="#445566" stroke="#445566" stroke-width="0"/><text x="222" y="159" fill="#445566" font-size="9" text-anchor="middle" font-family="sans-serif" font-weight="normal">x</text><text x="64" y="5" fill="#445566" font-size="9" text-anchor="middle" font-family="sans-serif" font-weight="normal">y</text><polyline points="16,153 17,153 19,153 20,153 22,153 23,153 24,153 26,152 27,152 28,152 30,152 31,152 32,152 34,151 35,151 37,151 38,151 39,150 41,150 42,150 44,149 45,149 46,149 48,148 49,148 50,147 52,147 53,146 54,146 56,145 57,144 59,144 60,143 61,142 63,141 64,141 66,140 67,139 68,138 70,136 71,135 72,134 74,133 75,131 76,130 78,128 79,126 81,124 82,122 83,120 85,118 86,116 88,113 89,110 90,108 92,104 93,101 94,98 96,94 97,90 98,86 100,81 101,77 103,72 104,66 105,61 107,55 108,48 110,41 111,34 112,26 114,18 115,10 116,10 118,10 119,10 120,10 122,10 123,10 125,10 126,10" fill="none" stroke="#f0a033" stroke-width="2.2"/><text x="120" y="16" fill="#c8d0e8" font-size="11" text-anchor="middle" font-family="sans-serif" font-weight="normal">f(x) = eˣ</text></svg>