<svg xmlns="http://www.w3.org/2000/svg" viewBox="0 0 240 200"><g data-label="x-axis  (horizontal axis — independent variable x)" style="cursor:crosshair"><line x1="35" y1="155" x2="205" y2="155" stroke="#445566" stroke-width="1"/><polygon points="205,152 213,155 205,158" fill="#445566" stroke="#445566" stroke-width="0"/><text x="217" y="159" fill="#445566" font-size="9" text-anchor="middle" font-family="sans-serif" font-weight="normal">x</text><line x1="35" y1="155" x2="213" y2="155" stroke="transparent" stroke-width="10"/></g><g data-label="y-axis  (vertical axis — dependent variable y = f(x))" style="cursor:crosshair"><line x1="120" y1="180" x2="120" y2="25" stroke="#445566" stroke-width="1"/><polygon points="117,25 120,17 123,25" fill="#445566" stroke="#445566" stroke-width="0"/><text x="124" y="15" fill="#445566" font-size="9" text-anchor="middle" font-family="sans-serif" font-weight="normal">y</text><line x1="120" y1="180" x2="120" y2="25" stroke="transparent" stroke-width="10"/></g><g data-label="Curve y = x²+3x  — a parabola shifted left and down" style="cursor:crosshair"><polyline points="32,115 34,118 35,122 37,125 38,128 40,131 41,134 43,137 44,139 46,142 47,145 49,147 50,149 52,152 53,154 55,156 56,158 58,160 59,162 61,163 62,165 64,166 65,168 67,169 68,170 70,171 71,172 73,173 74,174 76,175 77,176 79,176 80,177 82,177 83,177 85,177 86,177 88,177 89,177 91,177 92,177 94,176 96,176 97,175 99,175 100,174 102,173 103,172 105,171 106,170 108,169 109,167 111,166 112,164 114,163 115,161 117,159 118,157 120,155 121,153 123,151 124,149 126,146 127,144 129,141 130,139 132,136 133,133 135,130 136,127 138,124 139,121 141,117 142,114 144,111 145,107 147,103 148,99 150,96 151,92 153,88" fill="none" stroke="#f0a033" stroke-width="2.2"/></g><g data-label="Power rule + sum rule: d/dx[x²+3x] = 2x+3" style="cursor:crosshair"><text x="120" y="16" fill="#c8d0e8" font-size="10" text-anchor="middle" font-family="sans-serif" font-weight="normal">d/dx[x²+3x] = 2x+3</text><circle cx="120" cy="16" r="65" fill="transparent"/></g></svg>