<svg xmlns="http://www.w3.org/2000/svg" viewBox="0 0 240 200"><line x1="35" y1="155" x2="205" y2="155" stroke="#445566" stroke-width="1"/><line x1="120" y1="180" x2="120" y2="25" stroke="#445566" stroke-width="1"/><polygon points="205,152 213,155 205,158" fill="#445566" stroke="#445566" stroke-width="0"/><polygon points="117,25 120,17 123,25" fill="#445566" stroke="#445566" stroke-width="0"/><text x="217" y="159" fill="#445566" font-size="9" text-anchor="middle" font-family="sans-serif" font-weight="normal">x</text><text x="124" y="15" fill="#445566" font-size="9" text-anchor="middle" font-family="sans-serif" font-weight="normal">y</text><polyline points="61,253 62,246 64,239 65,233 67,227 68,221 70,215 71,210 72,205 74,201 75,197 77,193 78,189 80,185 81,182 83,179 84,176 86,174 87,171 89,169 90,167 92,166 93,164 95,163 96,161 98,160 99,159 101,158 102,158 104,157 105,157 107,156 108,156 110,156 111,155 113,155 114,155 116,155 117,155 119,155 120,155 121,155 123,155 124,155 126,155 127,155 129,155 130,154 132,154 133,154 135,153 136,153 138,152 139,152 141,151 142,150 144,149 145,147 147,146 148,144 150,143 151,141 153,139 154,136 156,134 157,131 159,128 160,125 162,121 163,117 165,113 166,109 168,105 169,100 170,95 172,89 173,83 175,77 176,71 178,64 179,57" fill="none" stroke="#f0a033" stroke-width="2.2"/><polyline points="109,172 175,128" fill="none" stroke="#5c8aff" stroke-width="2"/><circle cx="142" cy="150" r="4" fill="#f0a033" stroke="#f0a033" stroke-width="0"/><text x="120" y="16" fill="#c8d0e8" font-size="10" text-anchor="middle" font-family="sans-serif" font-weight="normal">d/dx[x^3] = 3x^2</text></svg>