<svg xmlns="http://www.w3.org/2000/svg" viewBox="0 0 240 200"><g data-label="x-axis  (horizontal axis — independent variable x)" style="cursor:crosshair"><line x1="50" y1="155" x2="225" y2="155" stroke="#445566" stroke-width="1"/><line x1="50" y1="155" x2="225" y2="155" stroke="transparent" stroke-width="10"/></g><g data-label="y-axis  (vertical axis — dependent variable y = f(x))" style="cursor:crosshair"><line x1="60" y1="165" x2="60" y2="35" stroke="#445566" stroke-width="1"/><line x1="60" y1="165" x2="60" y2="35" stroke="transparent" stroke-width="10"/></g><g data-label="Shaded area = ∫ from 0 to 2 of 2x+1 dx  (the definite integral)" style="cursor:crosshair"><polygon points="60,155 60,125 62,123 64,121 66,119 67,117 69,115 71,113 73,111 75,109 76,107 78,105 80,103 82,101 84,99 86,97 88,95 89,93 91,91 93,89 95,87 97,85 98,83 100,81 102,79 104,77 106,75 108,73 110,71 111,69 113,67 115,65 117,63 119,61 120,59 122,57 124,55 126,53 128,51 130,49 132,47 133,45 135,43 137,41 139,39 141,37 142,35 144,33 146,31 148,29 150,27 152,25 154,23 155,21 157,19 159,17 161,15 163,13 164,11 166,9 168,7 170,5 170,155" fill="rgba(240,160,51,0.18)" stroke="#f0a033" stroke-width="1.5"/></g><g data-label="Curve f(x) = 2x+1  (the integrand — function being integrated)" style="cursor:crosshair"><polyline points="60,125 62,123 63,121 65,119 67,118 69,116 70,114 72,112 74,110 75,108 77,106 79,104 81,102 82,101 84,99 86,97 88,95 89,93 91,91 93,89 94,88 96,86 98,84 100,82 101,80 103,78 105,76 106,74 108,72 110,71 112,69 113,67 115,65 117,63 118,61 120,59 122,58 124,56 125,54 127,52 129,50 130,48 132,46 134,44 136,42 137,41 139,39 141,37 142,35 144,33 146,31 148,29 149,28 151,26 153,24 155,22 156,20 158,18 160,16 161,14 163,12 165,11 167,9 168,7 170,5 172,3 173,1 175,-1 177,-2 179,-4 180,-6 182,-8 184,-10 185,-12 187,-14 189,-16 191,-18 192,-19 194,-21 196,-23 198,-25" fill="none" stroke="#f0a033" stroke-width="2"/></g><g data-label="Left bound x = 0  (lower limit of integration)" style="cursor:crosshair"><line x1="60" y1="155" x2="60" y2="150" stroke="#445566" stroke-width="1"/><text x="60" y="167" fill="#445566" font-size="9" text-anchor="middle" font-family="sans-serif" font-weight="normal">0</text><line x1="60" y1="150" x2="60" y2="167" stroke="transparent" stroke-width="14"/></g><g data-label="Right bound x = 2  (upper limit of integration)" style="cursor:crosshair"><line x1="170" y1="155" x2="170" y2="150" stroke="#445566" stroke-width="1"/><text x="170" y="167" fill="#445566" font-size="9" text-anchor="middle" font-family="sans-serif" font-weight="normal">2</text><line x1="170" y1="150" x2="170" y2="167" stroke="transparent" stroke-width="14"/></g><g data-label="∫ 2x+1 dx  (antiderivative — find a function whose derivative is 2x+1)" style="cursor:crosshair"><text x="120" y="16" fill="#c8d0e8" font-size="11" text-anchor="middle" font-family="sans-serif" font-weight="normal">∫ 2x+1 dx</text><circle cx="120" cy="16" r="60" fill="transparent"/></g></svg>