<svg xmlns="http://www.w3.org/2000/svg" viewBox="0 0 240 200"><line x1="35" y1="130" x2="205" y2="130" stroke="#445566" stroke-width="1"/><line x1="120" y1="155" x2="120" y2="0" stroke="#445566" stroke-width="1"/><polygon points="205,127 213,130 205,133" fill="#445566" stroke="#445566" stroke-width="0"/><polygon points="117,0 120,-8 123,0" fill="#445566" stroke="#445566" stroke-width="0"/><text x="217" y="134" fill="#445566" font-size="9" text-anchor="middle" font-family="sans-serif" font-weight="normal">x</text><text x="124" y="-10" fill="#445566" font-size="9" text-anchor="middle" font-family="sans-serif" font-weight="normal">y</text><polyline points="69,236 72,220 74,207 76,196 78,187 80,180 83,174 85,168 87,164 89,160 91,156 94,153 96,150 98,148 100,146 102,143 105,141 107,140 109,138 111,136 129,124 131,122 133,120 135,119 138,117 140,114 142,112 144,110 146,107 149,104 151,100 153,96 155,92 157,86 160,80 162,73 164,64 166,53 168,40 171,24" fill="none" stroke="#f0a033" stroke-width="2"/><text x="120" y="16" fill="#c8d0e8" font-size="8" text-anchor="middle" font-family="sans-serif" font-weight="normal">d/dx[x²/sinx] = (2x sinx - x²cosx)/sin²x</text></svg>