<svg xmlns="http://www.w3.org/2000/svg" viewBox="0 0 240 200"><polygon points="55,165 185,165 55,35" fill="rgba(92,138,255,0.13)" stroke="#9daacc" stroke-width="1.5"/><polyline points="55,158 62,158 62,165" fill="none" stroke="#5c8aff" stroke-width="1.5"/><path d="M167,152 A22,22 0 0,0 163,165" fill="none" stroke="#f0a033" stroke-width="1.3"/><path d="M55,53 A18,18 0 0,0 68,48" fill="none" stroke="#f0a033" stroke-width="1.3"/><text x="120" y="181" fill="#c8d0e8" font-size="11" text-anchor="middle" font-family="sans-serif" font-weight="normal">1</text><text x="39" y="100" fill="#c8d0e8" font-size="11" text-anchor="end" font-family="sans-serif" font-weight="normal">1</text><text x="144" y="100" fill="#c8d0e8" font-size="11" text-anchor="middle" font-family="sans-serif" font-weight="normal">√2</text><text x="159" y="149" fill="#f0a033" font-size="10" text-anchor="middle" font-family="sans-serif" font-weight="normal">45°</text><text x="75" y="63" fill="#f0a033" font-size="10" text-anchor="middle" font-family="sans-serif" font-weight="normal">45°</text><g data-label="Adjacent leg = 1  (bottom)" style="cursor:crosshair"><line x1="55" y1="165" x2="185" y2="165" stroke="transparent" stroke-width="14"/></g><g data-label="Opposite leg = 1  (left side)" style="cursor:crosshair"><line x1="55" y1="165" x2="55" y2="35" stroke="transparent" stroke-width="14"/></g><g data-label="Hypotenuse = √2  (longest side)" style="cursor:crosshair"><line x1="185" y1="165" x2="55" y2="35" stroke="transparent" stroke-width="14"/></g><g data-label="45° angle" style="cursor:crosshair"><circle cx="185" cy="165" r="26" fill="transparent"/></g><g data-label="45° angle" style="cursor:crosshair"><circle cx="55" cy="35" r="22" fill="transparent"/></g><g data-label="90° right angle" style="cursor:crosshair"><circle cx="55" cy="165" r="18" fill="transparent"/></g></svg>