<svg xmlns="http://www.w3.org/2000/svg" viewBox="0 0 240 200"><g data-label="x-axis  (y = 0 baseline)" style="cursor:crosshair"><line x1="30" y1="100" x2="200" y2="100" stroke="#445566" stroke-width="1"/><line x1="30" y1="100" x2="200" y2="100" stroke="transparent" stroke-width="10"/></g><g data-label="y-axis" style="cursor:crosshair"><line x1="30" y1="45" x2="30" y2="155" stroke="#445566" stroke-width="1"/><line x1="30" y1="45" x2="30" y2="155" stroke="transparent" stroke-width="10"/></g><g data-label="Sine curve  y = 3·sin(x / 1) — one complete period shown" style="cursor:crosshair"><polyline points="30,100 32,83 33,68 35,58 37,55 38,59 40,69 42,83 44,101 45,118 47,132 49,142 50,145 52,141 54,131 56,116 57,98 59,81 61,67 62,58 64,55 66,59 67,70 69,85 71,102 72,119 74,133 76,142 78,145 79,140 81,130 83,114 84,97 86,80 88,66 90,57 91,55 93,60 95,71 96,86 98,104 100,121 101,134 103,143 105,145 106,140 108,129 110,113 112,96 113,79 115,65 117,57 118,55 120,61 122,72 124,88 125,105 127,122 129,135 130,143 132,145 134,139 135,127 137,112 139,94 140,77 142,64 144,56 146,55 147,61 149,73 151,89 152,107 154,123 156,136 158,144 159,144 161,138 163,126 164,110 166,93 168,76 169,63 171,56 173,56 174,62 176,74 178,91 180,108 181,125 183,137 185,144 186,144 188,137 190,125 192,109 193,91 195,75 197,62 198,56 200,56" fill="none" stroke="#f0a033" stroke-width="2"/></g><g data-label="Amplitude = 3  (peak height above x-axis)" style="cursor:crosshair"><line x1="30" y1="55" x2="36" y2="55" stroke="#5c8aff" stroke-width="1.2"/><text x="52" y="55" fill="#5c8aff" font-size="10" text-anchor="start" font-family="sans-serif" font-weight="normal">A=3</text><line x1="30" y1="55" x2="80" y2="55" stroke="transparent" stroke-width="14"/></g><g data-label="Period = 1π  (horizontal length of one full cycle)" style="cursor:crosshair"><text x="120" y="190" fill="#c8d0e8" font-size="10" text-anchor="middle" font-family="sans-serif" font-weight="normal">Period = 1π</text><circle cx="120" cy="190" r="40" fill="transparent"/></g></svg>