<svg xmlns="http://www.w3.org/2000/svg" viewBox="0 0 240 200"><polygon points="48,165 192,165 48,80" fill="rgba(92,138,255,0.13)" stroke="#9daacc" stroke-width="1.5"/><polyline points="48,158 55,158 55,165" fill="none" stroke="#5c8aff" stroke-width="1.5"/><path d="M173,153 A22,22 0 0,0 170,165" fill="none" stroke="#f0a033" stroke-width="1.3"/><path d="M48,98 A18,18 0 0,0 57,96" fill="none" stroke="#f0a033" stroke-width="1.3"/><text x="120" y="181" fill="#c8d0e8" font-size="11" text-anchor="middle" font-family="sans-serif" font-weight="normal">√3</text><text x="32" y="122" fill="#c8d0e8" font-size="11" text-anchor="end" font-family="sans-serif" font-weight="normal">1</text><text x="142" y="122" fill="#c8d0e8" font-size="11" text-anchor="middle" font-family="sans-serif" font-weight="normal">2</text><text x="166" y="150" fill="#f0a033" font-size="10" text-anchor="middle" font-family="sans-serif" font-weight="normal">30°</text><text x="68" y="106" fill="#f0a033" font-size="10" text-anchor="middle" font-family="sans-serif" font-weight="normal">60°</text><g data-label="Adjacent leg = √3  (bottom, opposite the 60° angle)" style="cursor:crosshair"><line x1="48" y1="165" x2="192" y2="165" stroke="transparent" stroke-width="14"/></g><g data-label="Opposite leg = 1  (left side, opposite the 30° angle)" style="cursor:crosshair"><line x1="48" y1="165" x2="48" y2="80" stroke="transparent" stroke-width="14"/></g><g data-label="Hypotenuse = 2  (longest side)" style="cursor:crosshair"><line x1="192" y1="165" x2="48" y2="80" stroke="transparent" stroke-width="14"/></g><g data-label="30° angle" style="cursor:crosshair"><circle cx="192" cy="165" r="26" fill="transparent"/></g><g data-label="60° angle" style="cursor:crosshair"><circle cx="48" cy="80" r="22" fill="transparent"/></g><g data-label="90° right angle" style="cursor:crosshair"><circle cx="48" cy="165" r="18" fill="transparent"/></g></svg>